<svg width="128" height="191" viewBox="0 0 128 191" fill="none" xmlns="http://www.w3.org/2000/svg">
<mask id="mask0_2_4185" style="mask-type:alpha" maskUnits="userSpaceOnUse" x="0" y="0" width="128" height="191">
<path d="M0 127H64V191H0V127Z" fill="#D9D9D9"/>
<path d="M64 63H128V127H64V63Z" fill="#D9D9D9"/>
<path d="M64 0H128V64H64V0Z" fill="#D9D9D9"/>
<path d="M64 127H128V191H64V127Z" fill="#D9D9D9"/>
</mask>
<g mask="url(#mask0_2_4185)">
<path d="M143.341 159.255L152.422 30.6209C147.312 25.1005 75.3155 23.0199 43.3297 22.1042L42.6902 125.333C23.8859 124.158 -7.22402 127.09 -23.061 132.601C-39.2212 138.225 -58.6391 140.225 -58.1376 167.791C-57.7824 187.318 -33.5432 192.625 -20.5122 194.523C4.98328 198.236 61.2054 204.507 97.4433 201.896C133.002 199.333 142.895 173.855 143.341 159.255Z" fill="#E73434"/>
<path fill-rule="evenodd" clip-rule="evenodd" d="M159.449 28.3693L150.187 159.57C149.905 167.961 146.96 179.316 138.975 189.064C130.776 199.075 117.61 206.948 97.9634 208.364C60.8769 211.036 3.97883 204.654 -21.5544 200.935C-28.2334 199.962 -38.5393 198.031 -47.3674 193.459C-56.3923 188.785 -64.7548 180.803 -64.9895 167.903C-65.1278 160.301 -63.9015 153.999 -61.3749 148.76C-58.8196 143.462 -55.1043 139.605 -50.855 136.706C-46.6966 133.868 -42.0854 131.987 -37.776 130.5C-35.6696 129.774 -33.5388 129.11 -31.5308 128.485L-31.3703 128.435C-29.2779 127.783 -27.3174 127.171 -25.4256 126.512C-16.7377 123.489 -4.36069 121.308 7.94425 120.012C17.481 119.008 27.3265 118.5 35.8789 118.602L36.5181 15.419L43.5368 15.62C59.5133 16.0773 85.6159 16.8289 108.377 18.1609C119.741 18.8259 130.404 19.6428 138.607 20.6575C142.688 21.1624 146.334 21.7368 149.217 22.4082C150.65 22.7421 152.065 23.1385 153.32 23.629C154.377 24.0416 156.179 24.8367 157.576 26.3459L159.449 28.3693ZM42.6902 125.333C40.552 125.2 38.2546 125.119 35.8387 125.09C17.0084 124.858 -9.02484 127.716 -23.061 132.601C-25.1199 133.318 -27.2316 133.975 -29.3483 134.634C-43.8457 139.15 -58.5752 143.737 -58.1376 167.791C-57.7824 187.318 -33.5432 192.625 -20.5122 194.523C4.98328 198.236 61.2054 204.507 97.4433 201.896C133.002 199.333 142.895 173.855 143.341 159.255L152.422 30.6209C147.651 25.4662 84.5601 23.3106 50.1815 22.3022C47.7427 22.2306 45.4484 22.1649 43.3297 22.1042L42.6902 125.333Z" fill="#811313"/>
<path fill-rule="evenodd" clip-rule="evenodd" d="M48.6344 -50.8996C52.3612 -51.5241 55.9172 -49.1705 56.577 -45.6426L67.8138 14.4435C68.4736 17.9714 65.9873 21.3377 62.2605 21.9623C58.5337 22.5868 54.9777 20.2332 54.3179 16.7053L43.081 -43.3808C42.4213 -46.9088 44.9076 -50.275 48.6344 -50.8996Z" fill="#48A2B6"/>
<path fill-rule="evenodd" clip-rule="evenodd" d="M58.7692 55.0532C62.5468 55.2722 65.4217 58.3487 65.1904 61.9248L61.5016 118.953C61.2703 122.53 58.0204 125.251 54.2427 125.032C50.465 124.813 47.5902 121.737 47.8215 118.161L51.5102 61.1318C51.7416 57.5557 54.9915 54.8342 58.7692 55.0532Z" fill="#FB5B5B"/>
<path fill-rule="evenodd" clip-rule="evenodd" d="M129.438 26.2059L120.708 149.872C120.262 164.472 110.369 189.95 74.8103 192.513C38.5724 195.124 -17.6497 188.854 -43.1452 185.14C-45.1954 184.841 -47.523 184.458 -49.9914 183.949C-41.6653 190.721 -28.8142 193.314 -20.5122 194.523C4.98328 198.236 61.2054 204.507 97.4433 201.896C133.002 199.333 142.895 173.855 143.341 159.255L152.422 30.6209C150.74 28.8033 141.807 27.3589 129.438 26.2059Z" fill="#C42727"/>
<path fill-rule="evenodd" clip-rule="evenodd" d="M152.422 30.6209L143.341 159.255C143.299 160.649 143.17 162.142 142.941 163.705L150.452 57.3034C145.437 51.8845 75.9707 49.7801 43.1642 48.8384L43.3297 22.1042C75.3155 23.0199 147.312 25.1005 152.422 30.6209Z" fill="#AE1E1E"/>
<path fill-rule="evenodd" clip-rule="evenodd" d="M144.03 149.381L143.341 159.255C142.895 173.855 133.002 199.333 97.4433 201.896C86.9866 202.649 74.866 202.663 62.2998 202.212C62.6514 174.869 82.8487 150.891 111.57 146.078C122.887 144.181 134.041 145.51 144.03 149.381Z" fill="#E99345"/>
<path fill-rule="evenodd" clip-rule="evenodd" d="M63.1711 193.046C62.6354 196.043 62.3397 199.106 62.2998 202.212C74.866 202.663 86.9866 202.649 97.4433 201.896C133.002 199.333 142.895 173.855 143.341 159.255L144.03 149.381C136.844 146.596 129.055 145.127 121.036 145.228L120.708 149.872C120.262 164.472 110.369 189.95 74.8103 192.513C71.1201 192.779 67.2223 192.952 63.1711 193.046Z" fill="#CA7B32"/>
<path fill-rule="evenodd" clip-rule="evenodd" d="M81.0056 160.857C69.3896 171.569 64.3069 186.612 64.7807 197.516C64.8584 199.306 63.3887 200.817 61.4979 200.89C59.6072 200.964 58.0113 199.573 57.9336 197.783C57.3826 185.102 63.1653 168.252 76.2237 156.21C89.4751 143.99 109.964 136.949 138.139 143.692C139.973 144.132 141.085 145.895 140.621 147.632C140.157 149.369 138.294 150.421 136.459 149.982C110.423 143.75 92.4285 150.323 81.0056 160.857Z" fill="#FFAF66"/>
<path d="M23.5597 7.0714C23.545 -1.88557 31.2035 -9.15786 40.6654 -9.17173L153.97 -9.33786C163.431 -9.35174 171.114 -2.10193 171.128 6.85504L171.147 18.3509C171.162 27.3078 163.503 34.5801 154.041 34.594L40.7372 34.7601C31.2754 34.774 23.5932 27.5242 23.5785 18.5672L23.5597 7.0714Z" fill="#CEFCEB"/>
<path fill-rule="evenodd" clip-rule="evenodd" d="M40.6547 -15.6589L153.959 -15.8251C167.206 -15.8445 177.961 -5.69476 177.981 6.84499L178 18.3408C178.02 30.8806 167.299 41.0618 154.052 41.0812L40.7478 41.2473C27.5012 41.2668 16.7461 31.117 16.7256 18.5773L16.7068 7.08144C16.6863 -5.45831 27.4082 -15.6395 40.6547 -15.6589ZM40.6654 -9.17173C31.2035 -9.15786 23.545 -1.88557 23.5597 7.0714L23.5785 18.5672C23.5932 27.5242 31.2754 34.774 40.7372 34.7601L154.041 34.594C163.503 34.5801 171.162 27.3078 171.147 18.3509L171.128 6.85504C171.114 -2.10193 163.431 -9.35174 153.97 -9.33786L40.6654 -9.17173Z" fill="#79DAB8"/>
<path fill-rule="evenodd" clip-rule="evenodd" d="M43.451 24.4614C43.4497 21.7743 45.7498 19.5949 48.5883 19.5937L159.055 19.5453C161.893 19.544 164.195 21.7213 164.197 24.4084C164.198 27.0955 161.898 29.2748 159.059 29.2761L48.5931 29.3245C45.7545 29.3258 43.4523 27.1484 43.451 24.4614Z" fill="#9FF3F3"/>
<path fill-rule="evenodd" clip-rule="evenodd" d="M31.5943 0.570625C31.6101 -2.11643 33.9239 -4.28263 36.7624 -4.26771L80.3018 -4.03893C83.1403 -4.02402 85.4286 -1.83364 85.4128 0.853413C85.3971 3.54046 83.0832 5.70666 80.2447 5.69174L36.7054 5.46297C33.8669 5.44805 31.5785 3.25768 31.5943 0.570625Z" fill="white"/>
<path fill-rule="evenodd" clip-rule="evenodd" d="M50.7687 70.0264C47.3939 70.9939 44.2959 72.9221 42.5414 74.3728C41.1161 75.5512 38.9515 75.4128 37.7067 74.0636C36.4618 72.7144 36.6081 70.6653 38.0333 69.4869C40.3449 67.5756 44.2783 65.1088 48.7825 63.8177C53.3124 62.5191 58.9223 62.294 63.835 65.709C71.9262 71.3336 79.4087 70.4548 85.8364 68.6969C87.2404 68.3129 88.8143 67.6267 90.7103 66.7539C90.9258 66.6547 91.1456 66.553 91.3692 66.4495C93.0129 65.6891 94.8616 64.8338 96.7192 64.1698C100.977 62.6479 106.381 61.7459 111.304 65.557C114.87 68.3178 116.638 69.4435 118.513 69.8814C120.359 70.3126 122.772 70.1697 127.83 68.96C128.379 68.8288 128.925 68.6958 129.466 68.5639C131.344 68.1068 133.165 67.6633 134.837 67.355C137.026 66.9511 139.264 66.7141 141.513 66.9941C146.331 67.5941 150.112 70.4042 153.862 75.6889C154.918 77.1759 154.5 79.1912 152.929 80.1901C151.358 81.189 149.229 80.7933 148.174 79.3063C144.969 74.7906 142.683 73.683 140.619 73.4259C139.426 73.2774 138.019 73.3772 136.147 73.7224C134.694 73.9905 133.144 74.3677 131.314 74.813C130.741 74.9523 130.141 75.0982 129.508 75.2496C124.353 76.4825 120.492 77.0255 116.871 76.1798C113.279 75.3407 110.386 73.2266 106.966 70.5789C104.902 68.9814 102.583 69.008 99.14 70.2388C97.6043 70.7877 96.0638 71.4995 94.3859 72.2747C94.1623 72.378 93.9362 72.4825 93.7073 72.5878C91.8577 73.4393 89.7859 74.3692 87.7385 74.9292C80.3609 76.947 70.3297 78.2722 59.7788 70.9379C57.2346 69.1693 54.1178 69.0664 50.7687 70.0264Z" fill="#811313"/>
<path fill-rule="evenodd" clip-rule="evenodd" d="M54.8897 65.4997C51.7265 66.3824 48.8192 68.1049 47.1785 69.386C45.7187 70.5258 43.5591 70.3296 42.355 68.9477C41.1508 67.5658 41.3581 65.5214 42.8179 64.3815C45.014 62.6667 48.7262 60.4564 52.9521 59.2772C57.1766 58.0984 62.4536 57.8219 67.0899 60.8309C74.5128 65.6485 81.4848 64.8291 87.537 63.2148C88.852 62.8641 90.3287 62.2463 92.1096 61.4608C92.3121 61.3715 92.5186 61.28 92.7287 61.1869C94.2732 60.5023 96.0121 59.7316 97.7569 59.1294C101.723 57.7607 106.82 56.8786 111.478 60.2537C114.776 62.6429 116.376 63.5871 118.084 63.946C119.79 64.3045 122.044 64.1583 126.788 63.0451C127.303 62.9244 127.815 62.8022 128.322 62.6811C130.082 62.2611 131.79 61.8536 133.355 61.5664C135.405 61.1905 137.501 60.96 139.606 61.1854C144.145 61.6716 147.728 64.1492 151.243 68.8491C152.336 70.3112 151.971 72.3356 150.426 73.3706C148.881 74.4057 146.743 74.0594 145.65 72.5973C142.768 68.7438 140.721 67.8334 138.836 67.6315C137.728 67.5129 136.413 67.6134 134.659 67.9352C133.298 68.1848 131.845 68.5314 130.129 68.9405C129.593 69.0685 129.03 69.2026 128.437 69.3418C123.609 70.4746 119.99 70.9916 116.599 70.2791C113.21 69.5671 110.489 67.7063 107.313 65.4051C105.498 64.0897 103.367 64.0981 100.104 65.2242C98.6643 65.7212 97.2184 66.3612 95.6417 67.0591C95.4315 67.1521 95.219 67.2462 95.0039 67.341C93.2652 68.1079 91.3168 68.9465 89.3955 69.4589C82.5027 71.2974 73.0799 72.584 63.2149 66.1814C60.936 64.7024 58.0543 64.6167 54.8897 65.4997Z" fill="#BEC11F"/>
<path d="M94.3987 192.412C93.8032 194.056 91.9131 194.931 90.177 194.367C88.441 193.804 87.5164 192.014 88.1118 190.371C88.7073 188.728 90.5974 187.852 92.3334 188.416C94.0695 188.98 94.9941 190.769 94.3987 192.412Z" fill="#B86A0F"/>
<path d="M108.428 188.105C107.833 189.749 105.943 190.624 104.207 190.06C102.471 189.496 101.546 187.707 102.142 186.064C102.737 184.42 104.627 183.545 106.363 184.109C108.099 184.673 109.024 186.462 108.428 188.105Z" fill="#B86A0F"/>
<path d="M139.727 160.027C138.923 162.245 136.371 163.427 134.028 162.666C131.684 161.905 130.436 159.489 131.24 157.271C132.044 155.052 134.595 153.871 136.939 154.632C139.282 155.393 140.531 157.808 139.727 160.027Z" fill="#B86A0F"/>
<path d="M81.6373 187.764C81.0344 189.428 79.1207 190.314 77.363 189.743C75.6052 189.172 74.6691 187.361 75.272 185.697C75.8749 184.033 77.7886 183.147 79.5463 183.718C81.304 184.288 82.2402 186.1 81.6373 187.764Z" fill="#B86A0F"/>
<path d="M130.084 167.52C128.833 170.971 124.864 172.809 121.219 171.625C117.573 170.442 115.631 166.684 116.882 163.233C118.132 159.782 122.101 157.944 125.747 159.128C129.393 160.312 131.334 164.069 130.084 167.52Z" fill="#B86A0F"/>
<path d="M115.693 155.363C114.889 157.581 112.337 158.763 109.993 158.002C107.65 157.241 106.402 154.826 107.205 152.607C108.009 150.388 110.561 149.207 112.905 149.968C115.248 150.729 116.496 153.144 115.693 155.363Z" fill="#B86A0F"/>
<path d="M123.012 183.544C122.208 185.763 119.657 186.944 117.313 186.183C114.969 185.422 113.721 183.007 114.525 180.788C115.329 178.57 117.88 177.388 120.224 178.149C122.568 178.91 123.816 181.326 123.012 183.544Z" fill="#B86A0F"/>
<path d="M109.402 173.705C108.914 175.051 107.366 175.768 105.945 175.306C104.523 174.844 103.766 173.379 104.254 172.033C104.741 170.687 106.289 169.971 107.711 170.432C109.132 170.894 109.89 172.359 109.402 173.705Z" fill="#B86A0F"/>
<path d="M97.6992 178.469C96.8953 180.687 94.3438 181.869 92.0001 181.108C89.6565 180.347 88.4083 177.932 89.2122 175.713C90.016 173.494 92.5676 172.313 94.9112 173.074C97.2549 173.835 98.5031 176.25 97.6992 178.469Z" fill="#B86A0F"/>
<path d="M103.293 164.987C102.49 167.206 99.938 168.387 97.5944 167.626C95.2507 166.865 94.0025 164.45 94.8064 162.231C95.6103 160.013 98.1618 158.831 100.505 159.592C102.849 160.353 104.097 162.768 103.293 164.987Z" fill="#B86A0F"/>
<path d="M83.9336 175.207C83.3307 176.871 81.417 177.757 79.6593 177.186C77.9016 176.615 76.9654 174.804 77.5683 173.14C78.1712 171.476 80.0849 170.59 81.8426 171.16C83.6004 171.731 84.5365 173.543 83.9336 175.207Z" fill="#B86A0F"/>
<path fill-rule="evenodd" clip-rule="evenodd" d="M79.1052 1.1903C80.9972 1.15645 82.56 2.58096 82.5957 4.37204L82.977 23.4679C83.0127 25.259 81.5079 26.7384 79.6159 26.7723C77.7239 26.8061 76.1611 25.3816 76.1253 23.5905L75.7441 4.49462C75.7083 2.70354 77.2131 1.22415 79.1052 1.1903Z" fill="#3DB7D1"/>
<path fill-rule="evenodd" clip-rule="evenodd" d="M90.4493 6.27006C91.5034 7.75776 91.084 9.77276 89.5125 10.7707L72.757 21.4102C71.1855 22.4082 69.0569 22.0111 68.0027 20.5234C66.9485 19.0357 67.368 17.0207 68.9395 16.0228L85.695 5.38325C87.2665 4.38532 89.3951 4.78236 90.4493 6.27006Z" fill="#3DB7D1"/>
<path fill-rule="evenodd" clip-rule="evenodd" d="M90.4604 21.1173C89.4089 22.6067 87.2811 23.0073 85.7077 22.0119L68.9326 11.4001C67.3592 10.4048 66.9361 8.39048 67.9875 6.90104C69.039 5.4116 71.1668 5.01104 72.7402 6.00637L89.5153 16.6182C91.0887 17.6135 91.5118 19.6278 90.4604 21.1173Z" fill="#3DB7D1"/>
<path fill-rule="evenodd" clip-rule="evenodd" d="M121.12 3.3681C122.688 4.37173 123.099 6.38823 122.039 7.87209L110.735 23.6925C109.675 25.1764 107.545 25.5657 105.977 24.562C104.41 23.5584 103.998 21.5419 105.059 20.058L116.362 4.23763C117.422 2.75377 119.553 2.36447 121.12 3.3681Z" fill="#3DB7D1"/>
<path fill-rule="evenodd" clip-rule="evenodd" d="M127.305 13.7047C127.262 15.4956 125.693 16.9144 123.802 16.8737L103.631 16.4395C101.739 16.3988 100.24 14.9139 100.283 13.123C100.326 11.332 101.895 9.91321 103.787 9.95394L123.957 10.3882C125.849 10.4289 127.348 11.9137 127.305 13.7047Z" fill="#3DB7D1"/>
<path fill-rule="evenodd" clip-rule="evenodd" d="M118.283 25.8496C116.518 26.4943 114.534 25.6619 113.853 23.9906L106.593 6.17073C105.912 4.49934 106.791 2.62183 108.557 1.97719C110.322 1.33255 112.306 2.1649 112.987 3.83628L120.247 21.6561C120.928 23.3275 120.049 25.205 118.283 25.8496Z" fill="#3DB7D1"/>
<path fill-rule="evenodd" clip-rule="evenodd" d="M157.45 11.5051C158.453 13.0247 157.964 15.0256 156.358 15.9742L142.359 24.2465C140.754 25.1951 138.64 24.7322 137.638 23.2126C136.636 21.6929 137.125 19.692 138.73 18.7435L152.729 10.4711C154.335 9.52251 156.448 9.98544 157.45 11.5051Z" fill="#3DB7D1"/>
<path fill-rule="evenodd" clip-rule="evenodd" d="M158.483 21.7407C157.675 23.3609 155.633 24.0547 153.922 23.2903L138.996 16.6248C137.285 15.8604 136.552 13.9274 137.359 12.3073C138.167 10.6871 140.209 9.99333 141.92 10.7577L156.846 17.4232C158.557 18.1876 159.29 20.1206 158.483 21.7407Z" fill="#3DB7D1"/>
<path fill-rule="evenodd" clip-rule="evenodd" d="M146.883 28.3208C144.993 28.2314 143.537 26.7085 143.632 24.9193L144.456 9.31648C144.55 7.52732 146.159 6.14944 148.049 6.2389C149.939 6.32836 151.395 7.85129 151.3 9.64045L150.476 25.2433C150.382 27.0324 148.773 28.4103 146.883 28.3208Z" fill="#3DB7D1"/>
<path fill-rule="evenodd" clip-rule="evenodd" d="M58.4406 5.09563C59.4426 6.61527 58.9536 8.61615 57.3483 9.56473L43.349 17.8371C41.7437 18.7857 39.63 18.3228 38.628 16.8031C37.6259 15.2835 38.1149 13.2826 39.7202 12.334L53.7196 4.06166C55.3249 3.11307 57.4385 3.576 58.4406 5.09563Z" fill="#3DB7D1"/>
<path fill-rule="evenodd" clip-rule="evenodd" d="M59.4727 15.3313C58.6653 16.9515 56.6233 17.6452 54.9119 16.8809L39.9865 10.2153C38.275 9.45099 37.5422 7.51798 38.3496 5.89783C39.157 4.27768 41.199 3.5839 42.9104 4.34823L57.8358 11.0138C59.5473 11.7781 60.2801 13.7112 59.4727 15.3313Z" fill="#3DB7D1"/>
<path fill-rule="evenodd" clip-rule="evenodd" d="M47.873 21.9114C45.983 21.8219 44.5274 20.299 44.6219 18.5099L45.4461 2.90704C45.5406 1.11788 47.1494 -0.260001 49.0394 -0.170539C50.9294 -0.0810768 52.3849 1.44185 52.2904 3.23101L51.4663 18.8338C51.3718 20.623 49.763 22.0009 47.873 21.9114Z" fill="#3DB7D1"/>
<path d="M44.231 144.187C46.2515 154.991 27.6632 159.728 4.37076 163.632C-18.9217 167.535 -38.098 169.127 -40.1186 158.323C-42.1391 147.519 -24.8948 135.596 -1.60231 131.692C21.6902 127.789 42.2104 133.383 44.231 144.187Z" fill="#FB5B5B"/>
<path fill-rule="evenodd" clip-rule="evenodd" d="M-9.17579 137.528C-3.97539 136.309 0.977267 135.478 4.00881 135.079C6.82031 134.708 9.41647 136.566 9.80751 139.227C10.1985 141.889 8.23637 144.347 5.42488 144.717C2.7255 145.072 -1.87442 145.841 -6.70628 146.973C-11.6118 148.123 -16.3957 149.564 -19.6732 151.172C-22.1934 152.408 -25.2952 151.476 -26.6012 149.09C-27.9073 146.705 -26.9229 143.768 -24.4026 142.532C-20.0305 140.387 -14.3025 138.729 -9.17579 137.528Z" fill="#FFADAD"/>
</g>
</svg>
