<svg width="192" height="128" viewBox="0 0 192 128" fill="none" xmlns="http://www.w3.org/2000/svg">
<mask id="mask0_2_4260" style="mask-type:alpha" maskUnits="userSpaceOnUse" x="0" y="0" width="192" height="128">
<path d="M0 64H64V128H0V64Z" fill="#D9D9D9"/>
<path d="M64 0H128V64H64V0Z" fill="#D9D9D9"/>
<path d="M128 64H192V128H128V64Z" fill="#D9D9D9"/>
<path d="M64 64H128V128H64V64Z" fill="#D9D9D9"/>
</mask>
<g mask="url(#mask0_2_4260)">
<path d="M145.502 66.0265C150.461 57.5544 153.309 47.6571 153.309 37.0837C153.309 5.77281 128.334 -19.6097 97.5251 -19.6097C66.7163 -19.6097 41.7408 5.77281 41.7408 37.0837C41.7408 47.8492 44.6933 57.9139 49.8203 66.487C23.305 63.8752 -5.83538 66.6049 -11.5637 87.9917C-20.0161 119.549 17.3597 130.3 56.8436 127.229C48.8235 148.497 35.9142 171.498 18.1875 178.239C-15.2831 190.966 -4.12626 234.932 36.7822 227.99C69.509 222.436 90.0872 196.365 96.2854 184.024C104.963 200.222 131.244 231.692 166.946 227.99C202.648 224.288 206.614 200.222 204.135 188.652C202.482 182.481 193.722 170.371 171.904 171.297C153.59 172.074 140.865 149.892 133.356 127.879C174.343 129.333 213.134 116.418 202.981 84.0298C196.804 64.3293 170.56 62.4953 145.502 66.0265Z" fill="#DFA158"/>
<path fill-rule="evenodd" clip-rule="evenodd" d="M204.135 188.652C206.614 200.222 202.648 224.288 166.946 227.99C136.034 231.196 112.185 208.034 100.71 191.247C98.9311 188.645 97.4498 186.197 96.2854 184.024C95.2424 186.1 93.7922 188.566 91.9454 191.257C82.8175 204.558 64.0019 223.371 36.7822 227.99C-4.12626 234.932 -15.2831 190.966 18.1875 178.239C33.921 172.256 45.8595 153.464 53.9528 134.443C54.9781 132.033 55.9418 129.62 56.8436 127.229C54.1152 127.441 51.3968 127.587 48.703 127.665C12.413 128.715 -19.432 117.368 -11.5637 87.9917C-6.46337 68.9496 17.1971 64.6977 41.0393 65.838C43.975 65.9784 46.9134 66.2007 49.8203 66.487C48.4184 64.1428 47.179 61.6869 46.1182 59.1358C43.2994 52.3572 41.7408 44.9055 41.7408 37.0837C41.7408 5.77281 66.7163 -19.6097 97.5251 -19.6097C128.334 -19.6097 153.309 5.77281 153.309 37.0837C153.309 44.6592 151.847 51.8875 149.194 58.4935C148.145 61.1076 146.908 63.6244 145.502 66.0265C148.469 65.6085 151.452 65.2655 154.416 65.0185C176.492 63.1797 197.535 66.6614 202.981 84.0298C212.477 114.32 179.163 127.578 141.28 127.979C138.657 128.007 136.011 127.973 133.356 127.879C134.163 130.245 135.031 132.612 135.959 134.953C143.665 154.395 155.558 171.99 171.904 171.297C193.722 170.371 202.482 182.481 204.135 188.652ZM143.974 134.931C147.009 142.168 150.581 148.819 154.637 154.009C160.457 161.455 166.129 164.534 171.564 164.304C197.152 163.218 208.944 177.741 211.411 186.954L211.454 187.115L211.489 187.279C213.016 194.402 212.585 205.173 206.273 214.898C199.732 224.975 187.551 232.896 167.774 234.947C147.213 237.079 129.746 229.015 116.678 218.846C108.277 212.308 101.409 204.695 96.3229 197.747C92.5421 202.845 87.6203 208.404 81.6103 213.66C70.8584 223.063 56.2744 231.797 38.1238 234.877C14.3418 238.913 -2.66944 228.005 -7.59833 212.479C-12.4296 197.26 -4.89262 179.456 15.3577 171.756C22.1612 169.169 28.7746 163.111 34.868 154.365C38.9703 148.477 42.6014 141.711 45.7319 134.723C29.3157 134.882 13.3938 132.567 1.27599 126.841C-6.33332 123.245 -12.8394 118.107 -16.6826 111.033C-20.5721 103.873 -21.3086 95.511 -18.8398 86.2938C-15.1074 72.3586 -3.61926 64.9604 9.2653 61.511C18.1147 59.1419 28.1139 58.4583 37.9849 58.7188C35.5582 51.9516 34.2408 44.6636 34.2408 37.0835C34.2408 2.47974 61.9856 -26.6099 97.5251 -26.6099C133.064 -26.6099 160.809 2.47973 160.809 37.0835C160.809 44.3175 159.609 51.2856 157.391 57.7888C166.291 57.2768 175.2 57.6435 183.167 59.5313C195.329 62.4129 206.123 69.1256 210.179 82.0638C213.137 91.5007 212.691 100.16 208.955 107.691C205.266 115.125 198.75 120.7 191.016 124.75C178.375 131.368 161.434 134.482 143.974 134.931Z" fill="#9E6017"/>
<path fill-rule="evenodd" clip-rule="evenodd" d="M142.059 26.5837C142.059 37.157 139.211 47.0544 134.252 55.5265C139.77 54.7489 145.345 54.2315 150.751 54.1077C152.413 48.734 153.309 43.0152 153.309 37.0837C153.309 17.7597 143.796 0.69387 129.27 -9.54081C137.259 0.268167 142.059 12.8562 142.059 26.5837ZM189.99 69.3535C190.679 70.6467 191.263 72.0369 191.731 73.5298C201.884 105.918 163.093 118.832 122.106 117.379C127.762 133.958 136.375 150.632 148.107 157.522C141.921 149.389 137.018 138.614 133.356 127.879C174.343 129.333 213.134 116.418 202.981 84.0298C200.814 77.119 196.178 72.4068 189.99 69.3535ZM191.574 174.91C192.198 176.087 192.628 177.191 192.885 178.152C195.364 189.722 191.398 213.788 155.696 217.49C137.584 219.368 121.896 212.194 109.702 202.554C122.693 216.724 142.635 230.511 166.946 227.99C202.648 224.288 206.614 200.222 204.135 188.652C203.116 184.847 199.394 178.783 191.574 174.91ZM94.4269 187.393C90.3255 182.349 87.1552 177.481 85.0354 173.524C78.8372 185.865 58.259 211.936 25.5322 217.49C15.7421 219.151 7.65587 217.897 1.47755 214.853C6.77135 224.369 18.9503 231.016 36.7822 227.99C66.7682 222.901 86.5552 200.588 94.4269 187.393ZM41.0517 127.699C42.7083 124.052 44.2224 120.365 45.5936 116.729C24.2824 118.386 3.58546 116.017 -9.6229 108.523C-2.10334 121.342 18.0086 127.219 41.0517 127.699Z" fill="#CE8F44"/>
<path d="M60.3554 172.891C60.3554 174.824 58.6764 176.391 56.6054 176.391C54.5343 176.391 52.8554 174.824 52.8554 172.891C52.8554 170.958 54.5343 169.391 56.6054 169.391C58.6764 169.391 60.3554 170.958 60.3554 172.891Z" fill="#9E6017"/>
<path d="M22.9638 215.314C22.9638 217.247 21.2849 218.814 19.2138 218.814C17.1428 218.814 15.4638 217.247 15.4638 215.314C15.4638 213.381 17.1428 211.814 19.2138 211.814C21.2849 211.814 22.9638 213.381 22.9638 215.314Z" fill="#9E6017"/>
<path d="M84.1357 191.156C84.1357 193.089 82.4568 194.656 80.3857 194.656C78.3147 194.656 76.6357 193.089 76.6357 191.156C76.6357 189.223 78.3147 187.656 80.3857 187.656C82.4568 187.656 84.1357 189.223 84.1357 191.156Z" fill="#9E6017"/>
<path d="M76.6357 128.84C76.6357 130.773 74.9568 132.34 72.8857 132.34C70.8147 132.34 69.1357 130.773 69.1357 128.84C69.1357 126.907 70.8147 125.34 72.8857 125.34C74.9568 125.34 76.6357 126.907 76.6357 128.84Z" fill="#9E6017"/>
<path d="M17.0134 107.412C17.0134 109.345 15.3344 110.912 13.2634 110.912C11.1923 110.912 9.51338 109.345 9.51338 107.412C9.51338 105.479 11.1923 103.912 13.2634 103.912C15.3344 103.912 17.0134 105.479 17.0134 107.412Z" fill="#9E6017"/>
<path d="M49.9385 80.1407C49.9385 82.0737 48.2596 83.6407 46.1885 83.6407C44.1174 83.6407 42.4385 82.0737 42.4385 80.1407C42.4385 78.2078 44.1174 76.6407 46.1885 76.6407C48.2596 76.6407 49.9385 78.2078 49.9385 80.1407Z" fill="#9E6017"/>
<path d="M69.1357 101.551C69.1357 103.484 67.4568 105.051 65.3857 105.051C63.3147 105.051 61.6357 103.484 61.6357 101.551C61.6357 99.6179 63.3147 98.0509 65.3857 98.0509C67.4568 98.0509 69.1357 99.6179 69.1357 101.551Z" fill="#9E6017"/>
<path d="M79.0266 70.608C79.0266 72.541 77.3477 74.108 75.2766 74.108C73.2056 74.108 71.5266 72.541 71.5266 70.608C71.5266 68.675 73.2056 67.108 75.2766 67.108C77.3477 67.108 79.0266 68.675 79.0266 70.608Z" fill="#9E6017"/>
<path d="M140.101 87.2548C140.101 89.1878 138.423 90.7548 136.351 90.7548C134.28 90.7548 132.601 89.1878 132.601 87.2548C132.601 85.3218 134.28 83.7548 136.351 83.7548C138.423 83.7548 140.101 85.3218 140.101 87.2548Z" fill="#9E6017"/>
<path d="M140.101 53.8907C140.101 55.8237 138.423 57.3907 136.351 57.3907C134.28 57.3907 132.601 55.8237 132.601 53.8907C132.601 51.9578 134.28 50.3907 136.351 50.3907C138.423 50.3907 140.101 51.9578 140.101 53.8907Z" fill="#9E6017"/>
<path d="M97.5537 35.7345C97.5537 37.6675 95.8748 39.2345 93.8037 39.2345C91.7326 39.2345 90.0537 37.6675 90.0537 35.7345C90.0537 33.8015 91.7326 32.2345 93.8037 32.2345C95.8748 32.2345 97.5537 33.8015 97.5537 35.7345Z" fill="#9E6017"/>
<path d="M112.466 -3.85925C112.466 -1.92626 110.787 -0.359253 108.716 -0.359253C106.645 -0.359253 104.966 -1.92626 104.966 -3.85925C104.966 -5.79225 106.645 -7.35925 108.716 -7.35925C110.787 -7.35925 112.466 -5.79225 112.466 -3.85925Z" fill="#9E6017"/>
<path d="M72.8857 4.2345C72.8857 6.16749 71.2068 7.7345 69.1357 7.7345C67.0647 7.7345 65.3857 6.16749 65.3857 4.2345C65.3857 2.3015 67.0647 0.734497 69.1357 0.734497C71.2068 0.734497 72.8857 2.3015 72.8857 4.2345Z" fill="#9E6017"/>
<path d="M183.93 94.5509C183.93 96.4839 182.251 98.0509 180.18 98.0509C178.109 98.0509 176.43 96.4839 176.43 94.5509C176.43 92.6179 178.109 91.0509 180.18 91.0509C182.251 91.0509 183.93 92.6179 183.93 94.5509Z" fill="#9E6017"/>
<path d="M133.48 114.412C133.48 116.345 131.801 117.912 129.73 117.912C127.659 117.912 125.98 116.345 125.98 114.412C125.98 112.479 127.659 110.912 129.73 110.912C131.801 110.912 133.48 112.479 133.48 114.412Z" fill="#9E6017"/>
<path d="M127.311 157.455C127.311 159.388 125.632 160.955 123.561 160.955C121.49 160.955 119.811 159.388 119.811 157.455C119.811 155.522 121.49 153.955 123.561 153.955C125.632 153.955 127.311 155.522 127.311 157.455Z" fill="#9E6017"/>
<path d="M118.246 185.961C118.246 187.894 116.567 189.461 114.496 189.461C112.425 189.461 110.746 187.894 110.746 185.961C110.746 184.028 112.425 182.461 114.496 182.461C116.567 182.461 118.246 184.028 118.246 185.961Z" fill="#9E6017"/>
<path d="M141.64 197.926C141.64 199.859 139.961 201.426 137.89 201.426C135.818 201.426 134.14 199.859 134.14 197.926C134.14 195.993 135.818 194.426 137.89 194.426C139.961 194.426 141.64 195.993 141.64 197.926Z" fill="#9E6017"/>
<path d="M171.753 214.114C171.753 216.047 170.074 217.614 168.003 217.614C165.932 217.614 164.253 216.047 164.253 214.114C164.253 212.181 165.932 210.614 168.003 210.614C170.074 210.614 171.753 212.181 171.753 214.114Z" fill="#9E6017"/>
<path fill-rule="evenodd" clip-rule="evenodd" d="M65.6838 2.49665C68.136 4.27677 68.5777 7.57521 66.6705 9.86394C63.109 14.1376 55.6665 28.1337 58.4238 46.1483C58.8632 49.0186 56.7262 51.6779 53.6508 52.088C50.5755 52.498 47.7262 50.5036 47.2869 47.6332C44.0442 26.4478 52.6017 9.64386 57.7902 3.41756C59.6975 1.12884 63.2316 0.716531 65.6838 2.49665Z" fill="#F9B76B"/>
<path fill-rule="evenodd" clip-rule="evenodd" d="M30.1874 71.8674C30.9409 74.6804 29.1085 77.5308 26.0946 78.234C10.8334 81.795 4.9923 93.5612 4.01463 98.5799C3.4589 101.433 0.530619 103.325 -2.52587 102.806C-5.58237 102.287 -7.60964 99.5543 -7.05391 96.7016C-5.53158 88.887 2.62736 72.8865 23.3661 68.0475C26.3799 67.3443 29.434 69.0545 30.1874 71.8674Z" fill="#F9B76B"/>
<path fill-rule="evenodd" clip-rule="evenodd" d="M62.1341 134.66C65.0813 135.577 66.6741 138.55 65.6917 141.301C63.6944 146.893 59.6811 155.738 54.0136 164.493C48.3988 173.167 40.8236 182.283 31.5003 187.82C26.6112 190.724 23.7723 192.924 21.7712 195.074C19.8012 197.189 18.4089 199.504 16.7518 203.01C15.4978 205.663 12.1772 206.864 9.33488 205.694C6.4926 204.524 5.205 201.424 6.45895 198.772C8.31743 194.84 10.248 191.442 13.2793 188.186C16.2795 184.964 20.1203 182.133 25.4605 178.962C32.6371 174.699 39.1245 167.189 44.3846 159.063C49.5922 151.019 53.2663 142.888 55.019 137.981C56.0014 135.23 59.187 133.743 62.1341 134.66Z" fill="#F9B76B"/>
<path fill-rule="evenodd" clip-rule="evenodd" d="M69.0662 43.6984C70.629 42.43 72.9976 42.5842 74.3566 44.0429C78.0391 47.9954 85.0526 52.8074 93.8473 54.1985C102.424 55.555 113.156 53.738 124.772 43.7637C126.296 42.455 128.669 42.5473 130.071 43.9698C131.473 45.3924 131.374 47.6065 129.85 48.9153C116.673 60.23 103.646 62.8481 92.5941 61.1C81.761 59.3865 73.2789 53.554 68.6971 48.6361C67.3381 47.1775 67.5033 44.9668 69.0662 43.6984Z" fill="#763B04"/>
<path d="M91.361 17.4144C91.361 21.2484 88.0309 24.3565 83.9231 24.3565C79.8152 24.3565 76.4852 21.2484 76.4852 17.4144C76.4852 13.5804 79.8152 10.4724 83.9231 10.4724C88.0309 10.4724 91.361 13.5804 91.361 17.4144Z" fill="#763B04"/>
<path fill-rule="evenodd" clip-rule="evenodd" d="M98.861 17.4144C98.861 25.1144 92.173 31.3565 83.9231 31.3565C75.6731 31.3565 68.9852 25.1144 68.9852 17.4144C68.9852 9.71443 75.6731 3.47236 83.9231 3.47236C92.173 3.47236 98.861 9.71443 98.861 17.4144ZM83.9231 24.3565C88.0309 24.3565 91.361 21.2484 91.361 17.4144C91.361 13.5804 88.0309 10.4724 83.9231 10.4724C79.8152 10.4724 76.4852 13.5804 76.4852 17.4144C76.4852 21.2484 79.8152 24.3565 83.9231 24.3565Z" fill="white"/>
<path d="M123.592 17.4144C123.592 21.2484 120.262 24.3565 116.154 24.3565C112.046 24.3565 108.716 21.2484 108.716 17.4144C108.716 13.5804 112.046 10.4724 116.154 10.4724C120.262 10.4724 123.592 13.5804 123.592 17.4144Z" fill="#763B04"/>
<path fill-rule="evenodd" clip-rule="evenodd" d="M131.092 17.4144C131.092 25.1144 124.404 31.3565 116.154 31.3565C107.904 31.3565 101.216 25.1144 101.216 17.4144C101.216 9.71443 107.904 3.47236 116.154 3.47236C124.404 3.47236 131.092 9.71443 131.092 17.4144ZM116.154 24.3565C120.262 24.3565 123.592 21.2484 123.592 17.4144C123.592 13.5804 120.262 10.4724 116.154 10.4724C112.046 10.4724 108.716 13.5804 108.716 17.4144C108.716 21.2484 112.046 24.3565 116.154 24.3565Z" fill="white"/>
<path d="M107.963 88.331C113.715 90.926 116.123 97.3816 113.343 102.75C110.563 108.118 103.646 110.366 97.8942 107.771C92.1424 105.176 89.7336 98.7209 92.514 93.3525C95.2944 87.9842 102.211 85.736 107.963 88.331Z" fill="#FF4D26"/>
<path fill-rule="evenodd" clip-rule="evenodd" d="M111.227 82.0287C120.708 86.3063 124.679 96.9474 120.095 105.796C115.512 114.645 104.111 118.351 94.6301 114.074C85.149 109.796 81.1785 99.155 85.7615 90.3061C90.3446 81.4571 101.746 77.7512 111.227 82.0287ZM113.343 102.75C116.123 97.3816 113.715 90.926 107.963 88.331C102.211 85.736 95.2944 87.9842 92.514 93.3525C89.7336 98.7209 92.1424 105.176 97.8942 107.771C103.646 110.366 110.563 108.118 113.343 102.75Z" fill="#CC8736"/>
<path fill-rule="evenodd" clip-rule="evenodd" d="M113.343 102.75C116.123 97.3816 113.715 90.926 107.963 88.331C106.731 87.7754 105.446 87.4418 104.16 87.3133C104.878 87.4591 105.59 87.6856 106.281 87.9974C110.998 90.1257 112.974 95.4204 110.694 99.8234C108.413 104.226 102.74 106.07 98.0228 103.942C93.3053 101.814 91.3296 96.5189 93.61 92.1159C93.9441 91.471 94.3509 90.8809 94.8168 90.3503C93.8943 91.1967 93.1093 92.2031 92.514 93.3525C89.7336 98.7209 92.1424 105.176 97.8942 107.771C103.646 110.366 110.563 108.118 113.343 102.75Z" fill="#D43816"/>
<path d="M100.298 140.164C105.712 140.937 109.43 145.66 108.602 150.713C107.774 155.766 102.714 159.236 97.2994 158.463C91.8852 157.69 88.1675 152.967 88.9956 147.914C89.8237 142.861 94.8841 139.391 100.298 140.164Z" fill="#FF4D26"/>
<path fill-rule="evenodd" clip-rule="evenodd" d="M101.432 133.245C110.941 134.602 117.47 142.897 116.016 151.772C114.561 160.646 105.674 166.74 96.1654 165.383C86.6567 164.025 80.1274 155.731 81.5818 146.856C83.0363 137.981 91.9236 131.887 101.432 133.245ZM108.602 150.713C109.43 145.66 105.712 140.937 100.298 140.164C94.8841 139.391 89.8237 142.861 88.9956 147.914C88.1675 152.967 91.8852 157.69 97.2994 158.463C102.714 159.236 107.774 155.766 108.602 150.713Z" fill="#CC8635"/>
<path fill-rule="evenodd" clip-rule="evenodd" d="M108.602 150.713C109.43 145.66 105.712 140.937 100.298 140.164C99.1381 139.998 97.9942 140.028 96.9047 140.225C97.5336 140.176 98.1787 140.194 98.8301 140.287C103.271 140.921 106.32 144.794 105.641 148.939C104.961 153.083 100.811 155.929 96.3705 155.295C91.9299 154.661 88.8807 150.788 89.5599 146.643C89.6596 146.035 89.8339 145.455 90.073 144.91C89.5449 145.821 89.1731 146.831 88.9956 147.914C88.1675 152.967 91.8852 157.69 97.2994 158.463C102.714 159.236 107.774 155.766 108.602 150.713Z" fill="#D43816"/>
<path d="M100.462 90.9384C101.948 91.6088 102.57 93.2765 101.852 94.6633C101.134 96.0502 99.3469 96.6309 97.861 95.9606C96.3751 95.2902 95.7528 93.6225 96.4711 92.2357C97.1894 90.8488 98.9762 90.268 100.462 90.9384Z" fill="#FF9E74"/>
<path d="M94.83 143.105C96.4614 143.338 97.5816 144.761 97.3321 146.283C97.0826 147.806 95.5578 148.852 93.9264 148.619C92.2949 148.386 91.1747 146.963 91.4242 145.44C91.6738 143.917 93.1986 142.872 94.83 143.105Z" fill="#FF9E74"/>
<path d="M137.23 162.391C137.23 164.324 135.551 165.891 133.48 165.891C131.409 165.891 129.73 164.324 129.73 162.391C129.73 160.458 131.409 158.891 133.48 158.891C135.551 158.891 137.23 160.458 137.23 162.391Z" fill="#C67C27"/>
<path d="M184.926 108.847C184.926 110.78 183.247 112.347 181.176 112.347C179.105 112.347 177.426 110.78 177.426 108.847C177.426 106.914 179.105 105.347 181.176 105.347C183.247 105.347 184.926 106.914 184.926 108.847Z" fill="#C67C27"/>
<path d="M148.48 169.391C148.48 171.324 146.801 172.891 144.73 172.891C142.659 172.891 140.98 171.324 140.98 169.391C140.98 167.458 142.659 165.891 144.73 165.891C146.801 165.891 148.48 167.458 148.48 169.391Z" fill="#C67C27"/>
<path d="M140.98 178.961C140.98 180.381 139.747 181.531 138.226 181.531C136.706 181.531 135.473 180.381 135.473 178.961C135.473 177.542 136.706 176.391 138.226 176.391C139.747 176.391 140.98 177.542 140.98 178.961Z" fill="#C67C27"/>
<path d="M155.98 178.961C155.98 180.381 154.747 181.531 153.226 181.531C151.706 181.531 150.473 180.381 150.473 178.961C150.473 177.542 151.706 176.391 153.226 176.391C154.747 176.391 155.98 177.542 155.98 178.961Z" fill="#C67C27"/>
<path d="M166.879 186.727C166.879 188.146 165.646 189.297 164.125 189.297C162.604 189.297 161.371 188.146 161.371 186.727C161.371 185.307 162.604 184.156 164.125 184.156C165.646 184.156 166.879 185.307 166.879 186.727Z" fill="#C67C27"/>
<path d="M182.933 178.961C182.933 180.381 181.701 181.531 180.18 181.531C178.659 181.531 177.426 180.381 177.426 178.961C177.426 177.542 178.659 176.391 180.18 176.391C181.701 176.391 182.933 177.542 182.933 178.961Z" fill="#C67C27"/>
<path d="M195.473 190.157C195.473 191.576 194.24 192.727 192.719 192.727C191.198 192.727 189.965 191.576 189.965 190.157C189.965 188.737 191.198 187.586 192.719 187.586C194.24 187.586 195.473 188.737 195.473 190.157Z" fill="#C67C27"/>
<path d="M179.271 187.861C179.271 188.654 178.583 189.297 177.733 189.297C176.884 189.297 176.195 188.654 176.195 187.861C176.195 187.069 176.884 186.426 177.733 186.426C178.583 186.426 179.271 187.069 179.271 187.861Z" fill="#C67C27"/>
<path d="M143.178 157.455C143.178 158.248 142.489 158.891 141.64 158.891C140.79 158.891 140.101 158.248 140.101 157.455C140.101 156.662 140.79 156.02 141.64 156.02C142.489 156.02 143.178 156.662 143.178 157.455Z" fill="#C67C27"/>
<path d="M133.48 147.502C133.48 148.295 132.792 148.938 131.942 148.938C131.093 148.938 130.404 148.295 130.404 147.502C130.404 146.709 131.093 146.067 131.942 146.067C132.792 146.067 133.48 146.709 133.48 147.502Z" fill="#C67C27"/>
<path d="M171.079 117.533C171.079 118.326 170.39 118.969 169.541 118.969C168.691 118.969 168.003 118.326 168.003 117.533C168.003 116.74 168.691 116.098 169.541 116.098C170.39 116.098 171.079 116.74 171.079 117.533Z" fill="#C67C27"/>
<path d="M195.337 105.347C195.337 106.14 194.648 106.783 193.799 106.783C192.949 106.783 192.26 106.14 192.26 105.347C192.26 104.555 192.949 103.912 193.799 103.912C194.648 103.912 195.337 104.555 195.337 105.347Z" fill="#C67C27"/>
<path d="M199.087 93.9724C199.087 94.7652 198.398 95.408 197.549 95.408C196.699 95.408 196.01 94.7652 196.01 93.9724C196.01 93.1796 196.699 92.5369 197.549 92.5369C198.398 92.5369 199.087 93.1796 199.087 93.9724Z" fill="#C67C27"/>
<path d="M189.829 102.476C189.829 103.269 189.14 103.912 188.291 103.912C187.441 103.912 186.753 103.269 186.753 102.476C186.753 101.683 187.441 101.041 188.291 101.041C189.14 101.041 189.829 101.683 189.829 102.476Z" fill="#C67C27"/>
<path d="M174.155 108.847C174.155 109.64 173.466 110.283 172.617 110.283C171.767 110.283 171.079 109.64 171.079 108.847C171.079 108.055 171.767 107.412 172.617 107.412C173.466 107.412 174.155 108.055 174.155 108.847Z" fill="#C67C27"/>
<path d="M152.475 120.404C152.475 121.197 151.787 121.84 150.937 121.84C150.088 121.84 149.399 121.197 149.399 120.404C149.399 119.612 150.088 118.969 150.937 118.969C151.787 118.969 152.475 119.612 152.475 120.404Z" fill="#C67C27"/>
<path fill-rule="evenodd" clip-rule="evenodd" d="M10.0279 71.3753C9.25078 70.7774 7.7929 70.4942 6.13652 70.6488C4.07573 70.8411 2.23807 69.4378 2.03199 67.5144C1.82591 65.591 3.32945 63.8759 5.39024 63.6835C7.86603 63.4525 11.7622 63.6378 14.7985 65.9739C18.156 68.5572 19.2903 72.7952 18.1181 78.2656C17.4764 81.2605 17.3491 82.632 17.5106 83.4613C17.5864 83.8504 17.7096 84.277 19.0004 85.0802C20.9915 86.3191 23.7721 88.2982 25.2129 91.4865C26.7419 94.8702 26.4507 98.8546 23.9933 103.442C22.3475 106.514 22.3931 107.964 22.5886 108.755C22.8071 109.638 23.2789 110.288 24.2653 111.646C24.4837 111.946 24.7273 112.282 24.999 112.662C26.3124 114.501 28.1681 117.493 28.7377 120.645C29.0313 122.27 29.0258 124.165 28.1962 126.012C27.3354 127.928 25.7449 129.44 23.5559 130.461C21.7035 131.326 19.451 130.625 18.5247 128.896C17.5985 127.167 18.3494 125.065 20.2018 124.2C20.988 123.833 21.195 123.493 21.2794 123.305C21.395 123.048 21.4825 122.586 21.3422 121.81C21.0441 120.16 19.9246 118.177 18.7587 116.545C18.615 116.344 18.4529 116.126 18.2789 115.891C17.2656 114.527 15.8465 112.617 15.2807 110.329C14.5465 107.359 15.2119 104.181 17.2851 100.311C19.0498 97.017 18.7586 95.2164 18.3024 94.2068C17.7579 93.002 16.5679 91.9796 14.8401 90.9045C12.4119 89.3936 10.6756 87.5063 10.1316 84.7135C9.67333 82.3611 10.1659 79.6831 10.7638 76.8928C11.6221 72.8873 10.4837 71.726 10.0279 71.3753Z" fill="#13DE64"/>
<path fill-rule="evenodd" clip-rule="evenodd" d="M17.5277 71.3752C16.7506 70.7773 15.2927 70.4941 13.6364 70.6487C11.5756 70.8411 9.73791 69.4378 9.53183 67.5144C9.32575 65.591 10.8293 63.8758 12.8901 63.6835C15.3659 63.4524 19.262 63.6378 22.2983 65.9738C25.6559 68.5571 26.7902 72.7952 25.618 78.2656C24.9762 81.2604 24.8489 82.6319 25.0105 83.4613C25.0862 83.8503 25.2094 84.2769 26.5002 85.0801C28.4913 86.319 31.2719 88.2981 32.7127 91.4865C34.2417 94.8702 33.9505 98.8545 31.4931 103.442C29.8473 106.514 29.8929 107.964 30.0885 108.755C30.3069 109.638 30.7787 110.287 31.7652 111.646C31.9836 111.946 32.2272 112.282 32.4989 112.662C33.8123 114.501 35.6679 117.493 36.2376 120.645C36.5311 122.27 36.5257 124.165 35.696 126.012C34.8352 127.928 33.2447 129.439 31.0557 130.461C29.2033 131.325 26.9508 130.625 26.0246 128.896C25.0984 127.167 25.8492 125.064 27.7016 124.2C28.4878 123.833 28.6948 123.493 28.7793 123.305C28.8948 123.048 28.9824 122.586 28.842 121.809C28.5439 120.16 27.4244 118.177 26.2585 116.545C26.1148 116.344 25.9528 116.126 25.7787 115.891C24.7654 114.527 23.3463 112.617 22.7805 110.329C22.0463 107.359 22.7118 104.181 24.7849 100.311C26.5496 97.017 26.2584 95.2163 25.8022 94.2068C25.2577 93.0019 24.0678 91.9796 22.3399 90.9044C19.9118 89.3936 18.1755 87.5062 17.6314 84.7135C17.1732 82.361 17.6657 79.683 18.2636 76.8928C19.1219 72.8872 17.9835 71.7259 17.5277 71.3752Z" fill="#FFF7CD"/>
<path fill-rule="evenodd" clip-rule="evenodd" d="M18.1928 184.742C17.6794 184.754 16.8998 185.122 16.1528 185.96C14.8281 187.446 12.4636 187.648 10.8716 186.411C9.27957 185.175 9.06286 182.968 10.3875 181.482C11.7678 179.934 14.3835 177.829 18.0037 177.744C21.8774 177.653 25.3535 179.877 28.2619 183.949C29.8676 186.197 30.6941 187.133 31.3242 187.572C31.5994 187.765 31.8558 187.932 32.9575 187.798C34.9966 187.551 38.018 187.376 41.0336 188.706C44.1793 190.093 46.6514 192.805 48.2756 197.049C49.3412 199.834 50.3126 200.727 50.9346 201.123C51.6159 201.558 52.2709 201.718 53.7243 202.074C54.0504 202.154 54.4166 202.243 54.8324 202.348C56.8279 202.851 59.9013 203.815 62.3277 205.55C63.571 206.439 64.8297 207.661 65.5831 209.301C66.3715 211.016 66.4837 212.929 65.8364 214.897C65.2285 216.745 63.1308 217.783 61.1509 217.216C59.171 216.648 58.0588 214.69 58.6666 212.843C58.8182 212.382 58.7452 212.179 58.6901 212.059C58.6001 211.863 58.3571 211.529 57.7665 211.107C56.5249 210.219 54.6011 209.54 52.8777 209.106C52.6668 209.053 52.4329 208.998 52.1803 208.939C50.6958 208.591 48.5676 208.092 46.7025 206.902C44.3077 205.375 42.5832 202.986 41.2125 199.403C40.0707 196.42 38.7262 195.43 37.8294 195.035C36.8023 194.582 35.5549 194.542 33.9237 194.74C31.3552 195.051 29.0132 194.701 26.8321 193.178C25.0057 191.903 23.5179 189.927 22.0215 187.832C19.8488 184.79 18.4528 184.736 18.1928 184.742Z" fill="#1BC1E6"/>
<path fill-rule="evenodd" clip-rule="evenodd" d="M21.9429 181.242C21.4295 181.254 20.65 181.622 19.9029 182.46C18.5782 183.946 16.2138 184.148 14.6218 182.912C13.0297 181.675 12.813 179.468 14.1377 177.983C15.518 176.434 18.1336 174.33 21.7539 174.244C25.6276 174.153 29.1037 176.377 32.0121 180.449C33.6177 182.697 34.4443 183.633 35.0743 184.073C35.3496 184.265 35.606 184.432 36.7077 184.298C38.7468 184.051 41.7682 183.876 44.7837 185.206C47.9295 186.593 50.4016 189.305 52.0257 193.549C53.0913 196.334 54.0628 197.227 54.6847 197.624C55.3661 198.058 56.021 198.218 57.4745 198.574C57.8006 198.654 58.1668 198.744 58.5825 198.848C60.5781 199.351 63.6515 200.315 66.0778 202.05C67.3211 202.939 68.5798 204.161 69.3332 205.801C70.1216 207.517 70.2338 209.429 69.5865 211.397C68.9787 213.245 66.8809 214.283 64.9011 213.716C62.9212 213.149 61.809 211.191 62.4168 209.343C62.5684 208.882 62.4954 208.68 62.4403 208.56C62.3503 208.364 62.1073 208.029 61.5166 207.607C60.2751 206.719 58.3513 206.041 56.6278 205.606C56.417 205.553 56.183 205.498 55.9304 205.439C54.446 205.091 52.3178 204.592 50.4526 203.403C48.0579 201.875 46.3334 199.486 44.9627 195.904C43.8209 192.92 42.4764 191.93 41.5795 191.535C40.5524 191.082 39.3051 191.042 37.6739 191.24C35.1054 191.551 32.7634 191.201 30.5822 189.678C28.7559 188.403 27.2681 186.427 25.7717 184.332C23.5989 181.29 22.2029 181.236 21.9429 181.242Z" fill="#FFF7CD"/>
<path fill-rule="evenodd" clip-rule="evenodd" d="M136.243 214.28C136.216 214.758 136.548 215.512 137.386 216.272C138.87 217.62 138.904 219.835 137.46 221.221C136.016 222.607 133.642 222.638 132.157 221.291C130.61 219.887 128.564 217.29 128.753 213.914C128.955 210.303 131.599 207.24 136.174 204.848C138.699 203.528 139.763 202.831 140.281 202.279C140.508 202.038 140.706 201.812 140.649 200.777C140.542 198.86 140.589 196.035 142.242 193.332C143.968 190.512 147.055 188.421 151.715 187.238C154.772 186.461 155.801 185.627 156.273 185.078C156.79 184.478 157.012 183.881 157.504 182.556C157.614 182.259 157.738 181.925 157.882 181.546C158.574 179.728 159.841 176.943 161.882 174.819C162.928 173.731 164.33 172.654 166.14 172.08C168.034 171.479 170.086 171.522 172.138 172.277C174.065 172.985 175.012 175.017 174.253 176.816C173.494 178.614 171.316 179.498 169.389 178.789C168.909 178.613 168.687 178.665 168.555 178.707C168.338 178.776 167.962 178.976 167.465 179.493C166.421 180.58 165.547 182.317 164.95 183.887C164.877 184.08 164.801 184.293 164.718 184.523C164.231 185.878 163.534 187.82 162.119 189.463C160.302 191.574 157.616 192.994 153.684 193.992C150.408 194.824 149.247 195.999 148.755 196.803C148.192 197.723 148.053 198.881 148.138 200.414C148.273 202.828 147.717 204.981 145.922 206.893C144.419 208.493 142.193 209.725 139.839 210.956C136.422 212.742 136.256 214.037 136.243 214.28Z" fill="#1BC1E5"/>
<path fill-rule="evenodd" clip-rule="evenodd" d="M132.492 210.78C132.466 211.258 132.798 212.012 133.636 212.772C135.12 214.12 135.154 216.335 133.71 217.721C132.266 219.107 129.892 219.138 128.407 217.791C126.86 216.387 124.814 213.79 125.003 210.415C125.205 206.803 127.849 203.74 132.424 201.349C134.949 200.028 136.013 199.331 136.531 198.779C136.758 198.538 136.956 198.312 136.898 197.277C136.792 195.36 136.838 192.535 138.492 189.832C140.217 187.012 143.305 184.921 147.965 183.738C151.022 182.962 152.051 182.127 152.523 181.579C153.04 180.978 153.261 180.381 153.754 179.056C153.864 178.759 153.988 178.425 154.132 178.046C154.824 176.228 156.091 173.443 158.132 171.319C159.178 170.231 160.58 169.154 162.39 168.58C164.284 167.979 166.336 168.022 168.388 168.777C170.315 169.485 171.262 171.517 170.503 173.316C169.744 175.114 167.566 175.998 165.639 175.29C165.159 175.113 164.937 175.165 164.804 175.207C164.588 175.276 164.212 175.476 163.715 175.993C162.671 177.08 161.797 178.817 161.2 180.388C161.127 180.58 161.051 180.793 160.968 181.024C160.481 182.378 159.784 184.32 158.369 185.963C156.552 188.074 153.866 189.494 149.934 190.492C146.658 191.324 145.497 192.499 145.005 193.303C144.442 194.223 144.303 195.381 144.388 196.914C144.523 199.328 143.967 201.481 142.172 203.393C140.669 204.993 138.443 206.225 136.089 207.456C132.672 209.242 132.506 210.537 132.492 210.78Z" fill="#FFF7CD"/>
<path fill-rule="evenodd" clip-rule="evenodd" d="M180.939 71.3753C181.716 70.7774 183.174 70.4942 184.83 70.6488C186.891 70.8411 188.728 69.4378 188.934 67.5144C189.141 65.591 187.637 63.8759 185.576 63.6835C183.1 63.4525 179.204 63.6378 176.168 65.9739C172.81 68.5572 171.676 72.7952 172.848 78.2656C173.49 81.2605 173.617 82.632 173.456 83.4613C173.38 83.8504 173.257 84.277 171.966 85.0802C169.975 86.3191 167.194 88.2982 165.754 91.4865C164.225 94.8702 164.516 98.8546 166.973 103.442C168.619 106.514 168.573 107.964 168.378 108.755C168.159 109.638 167.688 110.288 166.701 111.646C166.483 111.946 166.239 112.282 165.967 112.662C164.654 114.501 162.798 117.493 162.229 120.645C161.935 122.27 161.941 124.165 162.77 126.012C163.631 127.928 165.222 129.44 167.411 130.461C169.263 131.326 171.516 130.625 172.442 128.896C173.368 127.167 172.617 125.065 170.765 124.2C169.978 123.833 169.771 123.493 169.687 123.305C169.571 123.048 169.484 122.586 169.624 121.81C169.922 120.16 171.042 118.177 172.208 116.545C172.351 116.344 172.514 116.126 172.688 115.891C173.701 114.527 175.12 112.617 175.686 110.329C176.42 107.359 175.755 104.181 173.681 100.311C171.917 97.017 172.208 95.2164 172.664 94.2068C173.209 93.002 174.399 91.9796 176.126 90.9045C178.555 89.3936 180.291 87.5063 180.835 84.7135C181.293 82.3611 180.801 79.6831 180.203 76.8928C179.344 72.8873 180.483 71.726 180.939 71.3753Z" fill="#13DE64"/>
<path fill-rule="evenodd" clip-rule="evenodd" d="M173.439 71.3752C174.216 70.7773 175.674 70.4941 177.33 70.6487C179.391 70.8411 181.229 69.4378 181.435 67.5144C181.641 65.591 180.137 63.8758 178.076 63.6835C175.601 63.4524 171.704 63.6378 168.668 65.9738C165.311 68.5571 164.176 72.7952 165.348 78.2656C165.99 81.2604 166.118 82.6319 165.956 83.4613C165.88 83.8503 165.757 84.2769 164.466 85.0801C162.475 86.319 159.695 88.2981 158.254 91.4865C156.725 94.8702 157.016 98.8545 159.473 103.442C161.119 106.514 161.073 107.964 160.878 108.755C160.66 109.638 160.188 110.287 159.201 111.646C158.983 111.946 158.739 112.282 158.468 112.662C157.154 114.501 155.298 117.493 154.729 120.645C154.435 122.27 154.441 124.165 155.27 126.012C156.131 127.928 157.722 129.439 159.911 130.461C161.763 131.325 164.016 130.625 164.942 128.896C165.868 127.167 165.117 125.064 163.265 124.2C162.479 123.833 162.272 123.493 162.187 123.305C162.072 123.048 161.984 122.586 162.124 121.809C162.423 120.16 163.542 118.177 164.708 116.545C164.852 116.344 165.014 116.126 165.188 115.891C166.201 114.527 167.62 112.617 168.186 110.329C168.92 107.359 168.255 104.181 166.182 100.311C164.417 97.017 164.708 95.2163 165.164 94.2068C165.709 93.0019 166.899 91.9796 168.626 90.9044C171.055 89.3936 172.791 87.5062 173.335 84.7135C173.793 82.361 173.301 79.683 172.703 76.8928C171.845 72.8872 172.983 71.7259 173.439 71.3752Z" fill="#FFF7CD"/>
</g>
</svg>
